<?xml version="1.0" encoding="UTF-8" standalone="no"?>
<!-- Created with Inkscape (http://www.inkscape.org/) -->

<svg
   width="29.225985mm"
   height="24.969294mm"
   viewBox="0 0 29.225985 24.969294"
   version="1.1"
   id="svg1"
   sodipodi:docname="ufo-no-bg.svg"
   inkscape:version="1.3.2 (091e20e, 2023-11-25, custom)"
   inkscape:export-filename="ufo-no-bg-200.png"
   inkscape:export-xdpi="173.81793"
   inkscape:export-ydpi="173.81793"
   xmlns:inkscape="http://www.inkscape.org/namespaces/inkscape"
   xmlns:sodipodi="http://sodipodi.sourceforge.net/DTD/sodipodi-0.dtd"
   xmlns="http://www.w3.org/2000/svg"
   xmlns:svg="http://www.w3.org/2000/svg">
  <sodipodi:namedview
     id="namedview1"
     pagecolor="#ffffff"
     bordercolor="#000000"
     borderopacity="0.25"
     inkscape:showpageshadow="2"
     inkscape:pageopacity="0.0"
     inkscape:pagecheckerboard="0"
     inkscape:deskcolor="#d1d1d1"
     inkscape:document-units="mm"
     inkscape:zoom="8.699602"
     inkscape:cx="55.174938"
     inkscape:cy="47.186067"
     inkscape:window-width="1920"
     inkscape:window-height="1017"
     inkscape:window-x="-8"
     inkscape:window-y="-8"
     inkscape:window-maximized="1"
     inkscape:current-layer="svg1" />
  <defs
     id="defs1" />
  <g
     id="layer1"
     transform="translate(-90.222918,-135.99583)">
    <path
       id="path2-3"
       style="fill:#10f183;fill-opacity:1;stroke:none;stroke-width:0.519088;stroke-linejoin:round;stroke-dasharray:none;stroke-opacity:1"
       d="m 109.03066,140.49723 c 3.50415,0.0424 5.84084,0.48796 7.88635,1.59641 4.85101,3.12299 1.86462,6.54789 -1.73636,9.4833 3.53805,-6.93327 0.58415,-7.65244 -9.43629,-4.13152 -10.116079,3.43381 -15.709595,5.63614 -4.31905,9.20175 -4.681409,0.70202 -8.182886,0.23538 -10.327977,-2.44162 -2.11134,-3.06192 -0.366843,-6.71839 4.882707,-9.85836 1.644621,-0.94929 1.752701,-0.37864 1.281485,1.32806 -0.343838,1.24535 -0.738576,2.14299 7.215545,-0.57687 7.24862,-2.40077 7.40134,-3.19041 5.32172,-3.48749 -1.91903,-0.27415 -2.46032,-1.10837 -0.76813,-1.11366 z m 7.92018,2.31055 c -0.25733,-0.18153 -0.52841,0.0948 -0.25618,0.30155 0.2927,0.16503 3.05762,2.06707 1.41365,4.32461 1.69813,-1.96397 -0.39818,-4.01828 -1.15747,-4.62616 z m -20.7161,2.18385 c -5.736955,3.25466 -6.385172,6.52194 -4.60272,8.73335 -1.555277,-3.73246 0.806656,-5.20355 4.574727,-7.53926 0.497107,-0.38078 0.42098,-1.3203 0.02799,-1.19409 z" />
    <path
       id="path4"
       style="fill:#ffff00;fill-opacity:1;stroke:none;stroke-width:0.519088;stroke-linejoin:round;stroke-dasharray:none;stroke-opacity:1"
       d="m 112.48978,147.40508 c -0.83946,0.009 -1.74312,0.42699 -1.99936,1.27429 l -0.91686,9.21626 c -0.0689,0.156 -0.23626,0.22431 -0.3912,0.12382 l -6.81946,-6.64214 c -1.47512,-0.92735 -3.887672,1.28685 -2.479205,2.24891 l 8.347945,5.9909 0.87765,0.11953 c 0.52959,-0.95066 1.01526,-0.63379 1.51249,-0.0207 l 0.50285,-0.0936 2.93718,-10.69493 c 0.24872,-1.01566 -0.62063,-1.53228 -1.57203,-1.5224 z m -1.36515,12.21733 c -0.7051,1.62512 -1.97229,0.62801 -2.89299,-0.005 l -4.1924,-0.78322 4.3043,1.43835 c 1.05302,1.01218 2.63299,0.83237 3.08597,-0.007 l 3.79955,-1.48158 z" />
    <path
       style="fill:#10f183;fill-opacity:1;stroke:none;stroke-width:0.172223;stroke-linejoin:round;stroke-dasharray:none;stroke-opacity:1"
       d="m 98.060154,141.56053 c -1.183615,2.10317 0.452003,1.81372 0.786316,0.99301 0.933854,-2.1135 3.22768,-4.85941 7.42391,-1.86118 0.54889,0.37959 1.50909,0.0755 0.4122,-0.72208 -3.58959,-2.53809 -6.795072,-1.58605 -8.622426,1.59025 z"
       id="path20" />
    <path
       style="fill:#10f183;fill-opacity:1;stroke:none;stroke-width:0.211426;stroke-linejoin:round;stroke-dasharray:none;stroke-opacity:1"
       d="m 96.341185,143.67014 -0.855501,0.37325 c -2.928234,-4.95458 -2.028687,-5.24374 -1.261671,-6.84757 l 0.249245,-0.0411 c -0.519202,0.92974 -2.132867,2.34445 1.867927,6.51545 z"
       id="path22" />
    <path
       style="fill:#10f183;fill-opacity:1;stroke:none;stroke-width:0.515863;stroke-linejoin:round;stroke-dasharray:none;stroke-opacity:1"
       d="m 95.439138,136.31819 -1.384825,2.42677 c 2.501432,-0.68397 1.819907,-2.04454 5.843112,-2.51185 -3.307209,-0.75844 -2.357618,0.58896 -4.458287,0.0851 z"
       id="path23" />
    <path
       style="fill:#10f183;fill-opacity:1;stroke:none;stroke-width:0.186457;stroke-linejoin:round;stroke-dasharray:none;stroke-opacity:1"
       d="m 104.57341,140.18427 c -0.64766,-0.42881 -1.35464,0.67769 0.12081,0.44777 0,0 2.65768,1.36272 -0.12081,-0.44777 z"
       id="path24" />
  </g>
  <path
     d="M 26.268508,5.3767717 V 3.8226929 H 25.677331 V 3.5517368 h 1.491378 v 0.2709561 h -0.595656 v 1.5540788 z m 1.103978,0 V 3.5517368 h 0.447861 l 0.461297,1.4577886 0.445622,-1.4577886 h 0.438905 V 5.3767717 H 28.888497 V 3.845086 L 28.418242,5.3767717 H 28.142807 L 27.652399,3.8226929 v 1.5540788 z"
     id="text3"
     style="font-size:4.5861px;font-family:Arial;-inkscape-font-specification:Arial;fill:#10f183;stroke-width:0.2;stroke-linejoin:round"
     aria-label="™" />
</svg>
